PathFileType	4	(X/Y/Z)	./resultDataOpenSim/trcMotMarkerGrf/sub06/qtm-01-01.trc
DataRate	CameraRate	NumFrames	NumMarkers	Units	OrigDataRate	OrigDataStartFrame	OrigNumFrames
250.000000	250.000000	14	24	m	250.000000	1	472
Frame#	Time	L.Toe.Tip			R.Toe.Tip			L.Ankle.Lat			R.Ankle.Lat			L.Ankle.Med			R.Ankle.Med			L.Heel			R.Heel			L.Knee.Lat			R.Knee.Lat			L.Knee.Med			R.Knee.Med			L.Thigh.Upper			R.Thigh.Upper			L.ASIS			R.ASIS			V.Sacral			L.Acromium			R.Acromium			C7			L.Elbow			R.Elbow			L.Wrist.Lat			R.Wrist.Lat
		X1	Y1	Z1	X2	Y2	Z2	X3	Y3	Z3	X4	Y4	Z4	X5	Y5	Z5	X6	Y6	Z6	X7	Y7	Z7	X8	Y8	Z8	X9	Y9	Z9	X10	Y10	Z10	X11	Y11	Z11	X12	Y12	Z12	X13	Y13	Z13	X14	Y14	Z14	X15	Y15	Z15	X16	Y16	Z16	X17	Y17	Z17	X18	Y18	Z18	X19	Y19	Z19	X20	Y20	Z20	X21	Y21	Z21	X22	Y22	Z22	X23	Y23	Z23	X24	Y24	Z24

1	0	-1.5951458	0.032414366	-0.097846408	-0.90817138	0.13431462	0.10878751	-1.7098185	0.084741626	-0.11281326	-1.0326883	0.087873932	0.11584997	-1.7102436	0.095343513	-0.025008139	-1.0230158	0.11977153	0.031650946	NaN	NaN	NaN	-1.0616035	0.039955735	0.042976219	-1.5301911	0.41132658	-0.13186059	-1.1887588	0.44373706	0.12334626	-1.5394153	0.41338131	-0.011221646	-1.2010623	0.41967535	-0.0097051375	-1.4098804	0.77690753	-0.19058075	-1.3717943	0.76605721	0.1554692	-1.3196634	0.81353917	-0.15638686	-1.2874727	0.81814624	0.089365741	-1.4773922	0.90473427	-0.0041955849	-1.3124555	1.3045461	-0.19852196	-1.3333654	1.2878223	0.1621918	-1.3929939	1.3387789	-0.021441891	-1.2871748	0.98315034	-0.27881709	-1.4889986	1.0129383	0.20573235	-1.0617799	0.88464089	-0.2339275	-1.4431906	0.78403073	0.25902037
2	0.004	-1.5951293	0.032409699	-0.097929483	-0.90024961	0.13382693	0.10697546	-1.7089102	0.085974364	-0.11329337	-1.0246632	0.08718171	0.1146563	-1.7068893	0.097116706	-0.026403957	-1.0153413	0.11915583	0.030490256	NaN	NaN	NaN	-1.053884	0.039219445	0.042060149	-1.5258617	0.41082837	-0.13213254	-1.1805993	0.44310022	0.12311639	-1.5346641	0.41281066	-0.01142106	-1.1935431	0.41914181	-0.0098617347	-1.4040987	0.77568286	-0.1902671	-1.3642787	0.76487345	0.1557299	-1.313324	0.8121993	-0.15610996	-1.2803271	0.81658505	0.089203549	-1.4708284	0.90362233	-0.0035091705	-1.3061967	1.3032611	-0.19793634	-1.327186	1.2863345	0.16287072	-1.3867589	1.3375053	-0.020884557	-1.2793446	0.98192843	-0.27817031	-1.4839613	1.0125578	0.20637891	-1.0536464	0.88460586	-0.23264335	-1.440233	0.78246079	0.25952631
3	0.008	-1.5950929	0.032397442	-0.097999614	-0.89268056	0.13303749	0.10509585	-1.707949	0.087230355	-0.1137456	-1.0170201	0.086330187	0.11346703	-1.7041268	0.098818855	-0.027568982	-1.008029	0.11832705	0.02928038	NaN	NaN	NaN	-1.0466168	0.038361424	0.041103606	-1.5214758	0.4103454	-0.13239299	-1.1724881	0.44249115	0.12278459	-1.5298871	0.41219131	-0.01160005	-1.1859338	0.41876248	-0.010039661	-1.3982516	0.77446815	-0.18990727	-1.3554598	0.76414869	0.15634923	-1.3070339	0.81089401	-0.15597086	-1.273151	0.81510236	0.089061876	-1.4639737	0.90247015	-0.002505396	-1.2998984	1.3020116	-0.19732898	-1.3209271	1.2848698	0.16357718	-1.3804798	1.3362608	-0.02029306	-1.2715628	0.98074353	-0.2774888	-1.478558	1.0118795	0.20686283	-1.0455819	0.88455185	-0.23137328	-1.4367626	0.78100192	0.26005599
4	0.012	-1.5950288	0.032377813	-0.098059925	-0.88567666	0.13175504	0.103123	-1.7069367	0.088532543	-0.11417026	-1.0099957	0.085217869	0.11225896	-1.701902	0.1004508	-0.02850319	-1.0012913	0.11717141	0.027995553	NaN	NaN	NaN	-1.0400748	0.037288233	0.040102	-1.516938	0.40987013	-0.1326416	-1.1643578	0.44196859	0.12231909	-1.5249149	0.4115064	-0.0117742	-1.1781855	0.41862002	-0.010222391	-1.3922965	0.77328037	-0.18950333	-1.3449921	0.76401015	0.15742789	-1.3007879	0.80961577	-0.15603281	-1.265903	0.81373081	0.088947041	-1.4566165	0.90127517	-0.00096849091	-1.2935315	1.3008168	-0.19668424	-1.3145589	1.2834469	0.1643177	-1.3741294	1.3350579	-0.01966163	-1.2638528	0.97961401	-0.27675464	-1.472702	1.010858	0.20715979	-1.0376137	0.88446916	-0.23012455	-1.4326303	0.7796902	0.26062941
5	0.016	-1.59494	0.032357992	-0.098122822	-0.87930913	0.12993027	0.1010726	-1.7058694	0.089902668	-0.11460742	-1.0036692	0.083820414	0.11100959	-1.6997533	0.102063	-0.029358826	-0.99520064	0.11567417	0.02664346	NaN	NaN	NaN	-1.0343395	0.03596954	0.039066949	-1.512176	0.40938091	-0.13287642	-1.1561354	0.44157844	0.12174573	-1.5197756	0.41077026	-0.011945638	-1.1703048	0.41871713	-0.010378141	-1.3862343	0.77213364	-0.189089	-1.3340308	0.76412985	0.15866646	-1.2945433	0.80835637	-0.15622416	-1.2585729	0.81247616	0.088859936	-1.4488403	0.90007869	0.00094985947	-1.2870939	1.2996849	-0.19599681	-1.3081066	1.282084	0.16508406	-1.3677051	1.3339035	-0.018983743	-1.256234	0.97854533	-0.27597203	-1.4665332	1.0096407	0.20734494	-1.0297464	0.88435856	-0.22889468	-1.4280112	0.77849782	0.26124834
6	0.02	-1.5948315	0.032346734	-0.098196374	-0.8735678	0.12760182	0.098965705	-1.7046924	0.091363885	-0.11510713	-0.99802292	0.082155949	0.10971423	-1.6974191	0.10370191	-0.030244138	-0.98975062	0.11386164	0.025244393	NaN	NaN	NaN	-1.0293798	0.034417607	0.038006142	-1.5071886	0.40886816	-0.13307554	-1.1478192	0.44130928	0.12110262	-1.5145906	0.41000864	-0.012099483	-1.1623208	0.41901108	-0.010500188	-1.3800784	0.77102912	-0.18868583	-1.3241664	0.76406554	0.15963877	-1.2882455	0.80713989	-0.15640603	-1.2511511	0.81134319	0.088812244	-1.440978	0.89892893	0.0027771078	-1.2805842	1.2986191	-0.19526764	-1.3015937	1.2807968	0.16586926	-1.3612045	1.3328028	-0.018234467	-1.248716	0.97753932	-0.27514784	-1.4602153	1.0083997	0.20750842	-1.0219658	0.88422471	-0.22767024	-1.4230894	0.77739136	0.26189853
7	0.024	-1.5947066	0.032349975	-0.098279946	-0.86842383	0.12483742	0.096820051	-1.7033699	0.09292432	-0.11568014	-0.99301463	0.08024803	0.10836926	-1.6952322	0.1053742	-0.031104556	-0.98490943	0.1117717	0.023814421	NaN	NaN	NaN	-1.025141	0.032654454	0.036939868	-1.5020056	0.40833829	-0.1332191	-1.1394513	0.44111102	0.12041929	-1.5092395	0.40924311	-0.012241584	-1.1542808	0.41944461	-0.010606011	-1.3738336	0.76996228	-0.18828526	-1.3158946	0.7636793	0.16020062	-1.2818706	0.80599974	-0.15650647	-1.2436232	0.81033507	0.088817552	-1.4333023	0.89784403	0.0041297137	-1.2739987	1.2976207	-0.19450081	-1.2950301	1.2795947	0.16667251	-1.3546291	1.3317568	-0.017397746	-1.2413022	0.97659576	-0.27428181	-1.4538547	1.0072579	0.20772155	-1.0142626	0.8840696	-0.22644178	-1.417881	0.77636417	0.26257339
8	0.028	-1.5945673	0.032367597	-0.098368998	-0.86385749	0.12170012	0.094656844	-1.70192	0.094572437	-0.11629474	-0.98860899	0.078118019	0.10697465	-1.6938315	0.10705761	-0.031781574	-0.98064522	0.1094428	0.022366543	NaN	NaN	NaN	-1.0216079	0.030733142	0.035892047	-1.4966219	0.40779498	-0.13332343	-1.1310799	0.44093599	0.11970674	-1.503575	0.40847992	-0.012377547	-1.1462399	0.41996489	-0.010714136	-1.3674955	0.76893066	-0.18786412	-1.3086248	0.76311064	0.16049995	-1.2754197	0.80495	-0.15652271	-1.2359992	0.8094537	0.088873814	-1.4258768	0.89683117	0.0048936952	-1.267347	1.2966938	-0.19369726	-1.2884195	1.2784778	0.16749689	-1.3479908	1.3307626	-0.016484238	-1.2339927	0.97571093	-0.27336931	-1.4474834	1.0062607	0.20801298	-1.0066546	0.88388885	-0.22522012	-1.4122782	0.77542976	0.26329438
9	0.032	-1.5944143	0.032393394	-0.0984623	-0.85986227	0.11824174	0.092491141	-1.7003549	0.096304107	-0.11691802	-0.98477656	0.075797129	0.10555542	-1.6931607	0.10876295	-0.032264867	-0.97693221	0.10690209	0.020907676	NaN	NaN	NaN	-1.0188327	0.028767245	0.034888381	-1.4909927	0.40723047	-0.1334254	-1.1227485	0.44076336	0.11895439	-1.4976896	0.40770661	-0.012490158	-1.1382437	0.42053076	-0.010843147	-1.361057	0.76793502	-0.18740309	-1.3016296	0.7625222	0.16072944	-1.2688713	0.80398554	-0.15643786	-1.2283022	0.80870753	0.088975453	-1.4186207	0.89593592	0.0051221558	-1.2606516	1.295845	-0.19285094	-1.281758	1.2774402	0.16834587	-1.3413061	1.3298154	-0.015529142	-1.2267838	0.97488443	-0.27240683	-1.4410775	1.005386	0.20836802	-0.99918079	0.88367429	-0.22403027	-1.4062086	0.77460212	0.26409136
10	0.036	-1.5942476	0.032419686	-0.098563165	-0.85643458	0.11449773	0.090318107	-1.6986499	0.098139041	-0.11753577	-0.98147841	0.07333834	0.10415943	-1.6922855	0.11055269	-0.032764232	-0.97375195	0.10416146	0.019416966	NaN	NaN	NaN	-1.0168796	0.026894394	0.033973986	-1.4850788	0.40662955	-0.13354277	-1.1144869	0.44059832	0.11813743	-1.4917303	0.4069076	-0.012568781	-1.1303221	0.4211059	-0.01101921	-1.3545112	0.76697669	-0.18688674	-1.2945094	0.76198929	0.16099671	-1.2621817	0.80309469	-0.15622472	-1.2205426	0.80809775	0.089128515	-1.4113925	0.8952165	0.0049747569	-1.2539282	1.2950777	-0.19195662	-1.2750356	1.2764746	0.16922194	-1.3345896	1.3289086	-0.014579081	-1.2196729	0.97412586	-0.27140441	-1.434603	1.0045926	0.20876057	-0.99186429	0.88342374	-0.2228856	-1.3997931	0.77387314	0.26494739
11	0.04	-1.5940642	0.032442795	-0.098674262	-0.8535275	0.11045591	0.088124174	-1.696751	0.10011658	-0.11814269	-0.97865666	0.070837314	0.1028356	-1.6905634	0.11247074	-0.033438885	-0.97106772	0.10124601	0.017837217	-1.7798211	0.10175377	-0.068714019	-1.0156756	0.025234046	0.033160697	-1.4788855	0.4059766	-0.13367042	-1.1063132	0.4404535	0.11722742	-1.4856752	0.40608615	-0.012631733	-1.1224931	0.42164792	-0.011263642	-1.3478561	0.76605539	-0.18630734	-1.2871689	0.76151397	0.16132041	-1.2553307	0.80226136	-0.15589722	-1.2127281	0.80760209	0.089334525	-1.4040856	0.89464162	0.0047124133	-1.2471785	1.2943911	-0.19101463	-1.2682463	1.275574	0.17012296	-1.3278532	1.328036	-0.013668833	-1.2126627	0.97344533	-0.27038218	-1.4280413	1.0038528	0.20917553	-0.98469435	0.88314679	-0.22177605	-1.3933034	0.77321282	0.26579595
12	0.044	-1.5938587	0.032465079	-0.09879226	-0.85094912	0.10602051	0.085932291	-1.6945892	0.10227826	-0.11874437	-0.97623578	0.068472376	0.10160233	-1.6882049	0.11450404	-0.034250474	-0.96873803	0.098259939	0.016128738	-1.7769282	0.10520712	-0.069681723	-1.0149203	0.023948167	0.032378508	-1.4724591	0.40526676	-0.1337974	-1.0982516	0.44033256	0.11620923	-1.4794045	0.40525545	-0.012704362	-1.1147707	0.42210573	-0.01158009	-1.3410932	0.76516488	-0.18567035	-1.2796798	0.76106759	0.16167085	-1.2483423	0.80146673	-0.15551	-1.2048845	0.80719477	0.089575491	-1.3966855	0.89408453	0.0046280451	-1.2404052	1.2937848	-0.19002496	-1.2614009	1.2747362	0.17104459	-1.3210998	1.3271971	-0.012780535	-1.2057566	0.97283918	-0.26934727	-1.4213888	1.0031545	0.20960955	-0.97764407	0.88286001	-0.22068435	-1.3869211	0.77259516	0.26659411
13	0.048	-1.5936254	0.032491379	-0.098908247	-0.84826791	0.10103865	0.083876546	-1.692172	0.10461039	-0.11936272	-0.97409474	0.066526512	0.10042964	-1.685648	0.11661719	-0.035100928	-0.96640956	0.095437752	0.014377325	-1.7740207	0.10862832	-0.07062042	-1.0141819	0.023310274	0.031568653	-1.4658386	0.40450715	-0.13390621	-1.090334	0.44022097	0.11510598	-1.4728528	0.40441257	-0.01279167	-1.1071715	0.42242403	-0.011955466	-1.334217	0.76429069	-0.18497626	-1.2721193	0.7606414	0.1620373	-1.2412701	0.8007048	-0.15512572	-1.1970552	0.80687602	0.089825883	-1.3892309	0.89347331	0.0048970121	-1.233621	1.2932596	-0.18898911	-1.2545298	1.2739672	0.17199074	-1.3143055	1.3263992	-0.011804331	-1.1989518	0.9722939	-0.26828936	-1.4146498	1.0024955	0.21006664	-0.97069502	0.88257553	-0.21960599	-1.380632	0.77200627	0.26735657
14	0.052	-1.5933595	0.032522487	-0.099013677	-0.84490766	0.095445862	0.082260863	-1.6896428	0.10701465	-0.12002384	-0.97200045	0.065313421	0.099297808	-1.6830831	0.11878496	-0.035945939	-0.96355058	0.09308414	0.012834586	-1.7709415	0.11223119	-0.071602543	-1.0130977	0.02356236	0.030804923	-1.4590138	0.40370007	-0.13396992	-1.0825787	0.44008491	0.11398814	-1.4660144	0.40353487	-0.012882446	-1.0997271	0.42255213	-0.012366519	-1.3272144	0.76342461	-0.18420741	-1.2644911	0.76027279	0.16245685	-1.2341557	0.79998714	-0.15477709	-1.1892814	0.8066717	0.090072107	-1.3817473	0.89287463	0.0055118754	-1.2268355	1.2928145	-0.1879197	-1.2476557	1.2732775	0.17297258	-1.3074276	1.3256598	-0.010594962	-1.1922439	0.97180213	-0.26720315	-1.4078289	1.0018784	0.21055375	-0.96385371	0.88228777	-0.21855522	-1.374345	0.77143547	0.2681125
